<svg width="36" height="36" viewBox="0 0 36 36" fill="none" xmlns="http://www.w3.org/2000/svg">
<path d="M33 18L27 12V16.5H15V19.5H27V24M30 27C28.1111 29.5186 25.4775 31.379 22.4725 32.3177C19.4675 33.2564 16.2433 33.2258 13.2566 32.2303C10.2699 31.2347 7.67217 29.3246 5.83137 26.7707C3.99056 24.2167 3 21.1482 3 18C3 14.8518 3.99056 11.7833 5.83137 9.22935C7.67217 6.67536 10.2699 4.76531 13.2566 3.76975C16.2433 2.77419 19.4675 2.74359 22.4725 3.6823C25.4775 4.621 28.1111 6.48141 30 9H25.905C24.173 7.4725 22.037 6.47721 19.7533 6.13359C17.4696 5.78996 15.1353 6.11258 13.0305 7.06275C10.9256 8.01291 9.13968 9.55024 7.8869 11.4903C6.63412 13.4303 5.96775 15.6906 5.96775 18C5.96775 20.3094 6.63412 22.5697 7.8869 24.5097C9.13968 26.4498 10.9256 27.9871 13.0305 28.9373C15.1353 29.8874 17.4696 30.21 19.7533 29.8664C22.037 29.5228 24.173 28.5275 25.905 27H30Z" fill="#3425B5" fill-opacity="0.933333"/>
</svg>
